<svg t="1561173335388" class="icon" viewBox="0 0 1204 1024" version="1.1" xmlns="http://www.w3.org/2000/svg" p-id="10448" width="128" height="128"><path d="M959.007925 563.802353v153.419294c0 169.020235-133.360941 306.778353-297.923765 306.778353h-37.345882c-258.770824 0-469.052235-216.124235-469.052236-481.400471V483.689412c0-266.480941 210.221176-483.689412 469.052236-483.689412h8.854588c99.930353 0 183.115294 74.330353 200.161882 172.333176h181.549177c105.291294 0 190.403765 87.943529 190.403764 195.764706s-85.112471 195.764706-190.403764 195.764706h-55.296z m-60.235294 153.419294V503.567059h115.531294C1085.863454 503.567059 1144.472395 443.030588 1144.472395 368.037647c0-74.932706-58.608941-135.469176-130.16847-135.469176h-237.568l-1.084236-28.973177C772.639925 123.482353 709.272395 60.235294 632.592866 60.235294h-8.854588C398.638984 60.235294 214.921336 250.036706 214.921336 483.689412v58.910117c0 232.327529 183.717647 421.165176 408.816942 421.165177h37.345882c130.831059 0 237.688471-110.351059 237.688471-246.543059z m-237.688471 187.331765c99.147294 0 180.344471-83.968 180.344471-187.392V504.048941c0-32.768 26.021647-59.693176 58.729411-59.693176h114.145883c39.936 0 72.884706-34.032941 72.884706-76.257883 0-42.285176-32.948706-76.257882-72.884706-76.257882h-447.548236a59.271529 59.271529 0 0 1-58.729411-59.693176c0-32.707765 26.021647-59.693176 58.729411-59.693177h144.082824a86.016 86.016 0 0 0-78.245647-52.826353h-8.854588c-193.475765 0-351.472941 163.237647-351.472942 364.182588v58.910118c0 196.547765 153.118118 356.894118 342.558118 361.773176h46.260706z m-37.345882 60.295529c-227.147294 0-411.708235-189.560471-411.708236-422.128941v-58.910118c0-233.773176 184.500706-424.417882 411.708236-424.417882h8.854588c77.763765 0 141.552941 62.524235 145.889882 141.552941l1.686588 30.659765h234.134589c73.667765 0 133.12 61.44 133.12 136.493176s-59.452235 136.493176-133.12 136.493177h-112.64v212.570353c0 136.312471-107.700706 247.567059-240.579765 247.567059h-7.228235l-30.117647 0.12047zM117.460631 893.530353a59.271529 59.271529 0 0 1-58.729412 59.753412 59.211294 59.211294 0 0 1-58.729412-59.632941V148.781176c0-32.707765 26.142118-59.632941 58.729412-59.632941 32.647529 0 58.729412 26.864941 58.729412 59.632941v744.688942z" p-id="10449"></path></svg>